HIERARCHY
ROOT Hips
{
  OFFSET 0.0 0.0 0.0
  CHANNELS 6 XPOSITION YPOSITION ZPOSITION ZROTATION XROTATION YROTATION 
  JOINT RightUpLeg
  {
    OFFSET -0.089458 -0.0866707 0.00101652
    CHANNELS 3 ZROTATION XROTATION YROTATION 
    JOINT RightLeg
    {
      OFFSET 0.0 -0.444227 0.013727
      CHANNELS 3 ZROTATION XROTATION YROTATION 
      JOINT RightFoot
      {
        OFFSET 0.00253549 -0.420924 -0.0146059
        CHANNELS 3 ZROTATION XROTATION YROTATION 
        JOINT RightToes
        {
          OFFSET 0.0004 -0.0441509 0.084991
          CHANNELS 3 ZROTATION XROTATION YROTATION 
          End Site
          {
            OFFSET -0.0008 -0.00137448 0.0977979
          }
        }
      }
    }
  }
  JOINT Spine
  {
    OFFSET 0.0 0.118905 0.0
    CHANNELS 3 ZROTATION XROTATION YROTATION 
    JOINT Spine1
    {
      OFFSET 0.0 0.256574 0.00127663
      CHANNELS 3 ZROTATION XROTATION YROTATION 
      JOINT HEad
      {
        OFFSET 0.0 0.0873416 0.00011341
        CHANNELS 3 ZROTATION XROTATION YROTATION 
        End Site
        {
          OFFSET -0.0029 0.127742 0.0251395
        }
      }
      JOINT LeftShoulder1
      {
        OFFSET 0.0899 -0.00362252 -0.0022
        CHANNELS 3 ZROTATION XROTATION YROTATION 
        JOINT LeftArm
        {
          OFFSET 0.102827 -3.37999e-005 0.00322123
          CHANNELS 3 ZROTATION XROTATION YROTATION 
          JOINT LeftForeArm
          {
            OFFSET 0.262597 0.00099144 -0.0142434
            CHANNELS 3 ZROTATION XROTATION YROTATION 
            JOINT LeftHand
            {
              OFFSET 0.220902 0.00085362 0.0102216
              CHANNELS 3 ZROTATION XROTATION YROTATION 
              End Site
              {
                OFFSET 0.13419 -0.006 0.0150291
              }
            }
          }
        }
      }
      JOINT RightShoulder
      {
        OFFSET -0.0899 -0.00362252 -0.0022
        CHANNELS 3 ZROTATION XROTATION YROTATION 
        JOINT RightArm
        {
          OFFSET -0.102827 -3.38e-005 0.00322123
          CHANNELS 3 ZROTATION XROTATION YROTATION 
          JOINT RightForeArm
          {
            OFFSET -0.26364 0.00099144 -0.0142434
            CHANNELS 3 ZROTATION XROTATION YROTATION 
            JOINT RightHand
            {
              OFFSET -0.220324 0.00085362 0.0102216
              CHANNELS 3 ZROTATION XROTATION YROTATION 
              End Site
              {
                OFFSET -0.133284 -0.006 0.0150291
              }
            }
          }
        }
      }
    }
  }
  JOINT LeftUpLeg
  {
    OFFSET 0.089458 -0.0866707 0.00101652
    CHANNELS 3 ZROTATION XROTATION YROTATION 
    JOINT LeftLeg
    {
      OFFSET 0.0 -0.444227 0.013727
      CHANNELS 3 ZROTATION XROTATION YROTATION 
      JOINT LeftFoot
      {
        OFFSET -0.00253549 -0.420924 -0.0146059
        CHANNELS 3 ZROTATION XROTATION YROTATION 
        JOINT LeftToes
        {
          OFFSET -0.0004 -0.0441509 0.084991
          CHANNELS 3 ZROTATION XROTATION YROTATION 
          End Site
          {
            OFFSET 0.0008 -0.00047448 0.0977979
          }
        }
      }
    }
  }
}
MOTION
Frames: 9
Frame Time: 0.033333
-1.03638 1.11857 -1.08794 -0.486287751038 0.515380995168 90.0046197124 3.23245191151 -4.1321692521 1.55926975532 -1.31501226548 13.5468819404 -14.42365881 -1.44130907998 -15.6509994076 -0.327772000409 0.0462047989973 0.000530889001377 0.662642008108 -5.03679152228 3.9522185269 -1.2039436779 3.15121193397 6.38601257678 -2.05393862871 -2.27027035652 26.7212282879 0.523887142006 -32.1991236721 -3.95472648699 13.8200143751 -74.9660526318 -42.4998207518 -37.8245016235 -173.83383317 62.3745032742 173.93276163 9.97355150908 8.86994405714 -7.59693254586 31.0563578919 -1.05301293238 -6.92520521222 50.5555439344 -13.8712749448 16.7669532802 5.93238641682 60.3296539198 10.3864816944 -1.7848369661 9.84061382972 1.12070362887 -1.21136755992 -8.79635389148 -1.19613815906 1.8367307157 18.8232483242 12.0831126371 0.468200876507 -17.7642292009 0.135647903762 -1.33896501744e-009 8.75215286937e-006 -1.46631633522e-008 
-1.03523572215 1.1176518125 -1.08482746552 -0.510153979463 0.46111935772 90.3100111305 3.47167160322 -4.18572177717 1.58809080574 -1.21975716665 13.8277862766 -14.7889526947 -1.54646389767 -15.9730872232 -0.341925539751 0.0462047989973 0.000530889001377 0.662642008108 -4.77003250783 4.40668394635 -1.29207414237 3.10322323831 5.93139732005 -2.11642931009 -2.17662718234 26.594120175 0.443103373082 -32.0245269614 -3.86367707714 13.6304996775 -75.2390348024 -42.5284836407 -37.9893755598 -173.826470226 62.280656475 174.071564734 9.42045730424 8.92644423573 -7.6840652691 31.2100644689 -1.05473958286 -6.91542779642 50.4725810417 -14.3522389369 16.5349027258 6.12265670408 60.5269507641 10.112386203 -1.84205185995 9.83750523987 1.10867406492 -0.945364241866 -9.42050767689 -1.28873001772 1.9063625733 20.0664878947 11.806990287 0.016147352603 -18.0838701013 0.0965111866221 -1.33896501744e-009 8.75215286937e-006 -1.46631633522e-008 
-1.0338312351 1.116699625 -1.08171180439 -0.504894520358 0.42369568404 90.5617992241 3.73377157489 -4.21975276782 1.65535739017 -1.17368380544 14.1600519278 -15.1397255973 -1.63175428411 -16.3145317949 -0.35602755919 0.0462047989973 0.000530889001377 0.662642008108 -4.51928857944 4.69656229737 -1.34460982303 3.13657035627 5.80268752779 -2.16280053158 -2.03104511528 26.4109345015 0.3567964624 -31.9424349178 -3.82763288823 13.5579451393 -75.7359720456 -42.527882584 -38.3853421166 -173.77934192 62.2826918714 174.261116144 9.7414642424 8.85621623068 -8.13070329176 31.1871867503 -1.02645694345 -6.84208906709 50.3448394287 -14.4357123863 16.385736517 6.31191441579 60.3459849021 9.92610560001 -1.89967304334 9.8338920698 1.11962477915 -0.669216598793 -10.1842329629 -1.4573397474 1.9637079878 21.6366220263 11.6197150377 -0.593534207447 -18.166523928 0.0408029964828 -1.33896501744e-009 8.75215286937e-006 -1.46631633522e-008 
-1.03249584082 1.1155024375 -1.07886890731 -0.544070030838 0.38864688848 90.7760622584 3.96487956319 -4.41934882462 1.69472329217 -1.12474453954 14.7092614626 -15.437031779 -1.72383611973 -16.7397605896 -0.372570197319 0.0462047989973 0.000530889001377 0.662642008108 -4.2966598441 5.05673951664 -1.32028196987 3.34135394174 5.6290799139 -2.16609225588 -1.82816928702 25.9693474037 0.175189069486 -31.9789115431 -3.83970311316 13.5798589474 -75.9983605928 -42.2876989819 -38.6453435126 -173.680263196 62.6211072542 174.097095981 10.1893931708 8.7865662304 -8.34262869378 31.1339454257 -1.01534006352 -6.81704020209 50.0243464623 -14.0783833559 16.2608943193 6.15064596553 59.9211403055 10.1417645542 -1.83002731192 9.83501648969 1.1027025586 -0.492379746169 -11.2591911864 -1.79614658543 2.04013396263 23.6295107167 11.64042161 -0.789091434646 -18.0277105784 0.0216892557042 -1.33896501744e-009 8.75215286937e-006 -1.46631633522e-008 
-1.03085126015 1.113981 -1.07617313665 -0.505233681939 0.374066008747 91.0501987309 4.17226587762 -4.6013669627 1.6730401096 -1.06804116283 15.4417360718 -15.7353163853 -1.78010652649 -17.2911156575 -0.389362751002 0.0462047989973 0.000530889001377 0.662642008108 -4.06614224028 5.46155714479 -1.30779350258 3.61251736098 5.56083266371 -2.19512248084 -1.5557340652 25.4198894208 -0.048381721692 -32.029601792 -3.87993975756 13.6714620295 -76.2425330254 -42.0036245841 -38.8936072286 -173.596948549 62.9771581855 173.920467289 10.389040454 8.75732704433 -8.40783224092 31.0021432653 -0.998861378375 -6.78419979878 49.8741164515 -13.9200646936 16.2367683836 5.94774196274 59.6770703257 10.3440517055 -1.83270133098 9.83385450376 1.13633611762 -0.471516879988 -12.4699540611 -2.424262094 2.12109966538 25.9438434773 11.8553744933 -0.269592128893 -17.7142458766 0.0662785815606 -1.33896501744e-009 8.75215286937e-006 -1.46631633522e-008 
-1.02848361175 1.1123271875 -1.07352118439 -0.407356217359 0.359041113357 91.3307419209 4.38854808656 -4.66882916802 1.63129890259 -1.01780597525 16.1679405674 -16.0078648389 -1.80433021927 -17.8914295214 -0.405462040484 0.0462047989973 0.000530889001377 0.662642008108 -3.77721712754 5.71606792251 -1.30997297325 3.80720293865 5.69396969922 -2.22323361847 -1.23593190838 25.003177872 -0.32004532223 -32.0218256216 -3.90151034873 13.7297115903 -76.4281707369 -41.874612556 -38.9731003852 -173.584066812 63.12968997 173.892285929 10.3345116388 8.75548033194 -8.505583347 30.8431979331 -0.974924980428 -6.7334467975 50.0067211592 -14.3809086559 16.3217034935 5.97909210414 59.8558846782 10.1963906996 -1.89791853849 9.83329186693 1.1885867446 -0.510017055514 -13.657904104 -3.07660876587 2.09516223545 28.2619106439 11.9714740489 0.918998964617 -17.3938724385 0.168125626688 -1.33896501744e-009 8.75215286937e-006 -1.46631633522e-008 
-1.02561917311 1.110758125 -1.07099292067 -0.424876479674 0.308041264763 91.4639920814 4.61108205302 -4.79151857542 1.64033470925 -0.979984549778 16.7897746498 -16.1743472848 -1.86491826607 -18.4503695144 -0.424267845785 0.0462047989973 0.000530889001377 0.662642008108 -3.46359170288 5.8833806633 -1.25531032899 3.92538271365 5.62277522241 -2.17832789944 -1.03898052218 24.770888261 -0.522549438785 -32.093511872 -3.91982293967 13.758514498 -76.1080056195 -41.957476411 -38.5760136775 -173.668911422 62.9999027154 173.844037472 10.2509587884 8.7439287745 -8.75586965272 30.8069842702 -0.963859540364 -6.70662293708 50.0087053291 -14.9224384967 16.3965657819 6.1868241969 60.0732895994 9.8519271843 -1.84091804855 9.83623055582 1.16353233007 -0.493253690218 -14.9676970377 -3.58444699104 1.81222613139 30.4755800765 11.69295601 1.87206947414 -17.4167347892 0.25577764441 -1.33896501744e-009 8.75215286937e-006 -1.46631633522e-008 
-1.02220943129 1.1092734375 -1.06874835788 -0.399432290788 0.389041598708 91.6281146969 4.68534926118 -4.81033660035 1.54967686135 -0.969620271321 17.3732128238 -16.2836542172 -1.91798307295 -19.068528955 -0.444516101663 0.0462047989973 0.000530889001377 0.662642008108 -3.19812359418 6.15957473032 -1.19240972955 3.97099770514 5.32401079528 -2.10861279892 -0.927558899195 24.4508563323 -0.501926322916 -32.1981606154 -3.93557036769 13.7715669895 -75.4372605524 -42.1663709166 -37.8117428301 -173.784956336 62.7450273763 173.728566294 10.2754330638 8.71303241379 -9.07949938352 30.8761126148 -0.969262646885 -6.71533569714 49.772749614 -15.1374135782 16.3235510597 6.20312913911 59.7156950455 9.82342992754 -1.78074546934 9.83675562661 1.12538753782 -0.694923936725 -16.4362116149 -4.61946611022 1.21171643317 32.8125873577 11.276761848 1.07004870483 -17.9875729717 0.194133986532 -1.33896501744e-009 8.75215286937e-006 -1.46631633522e-008 
-1.0182362663 1.10790125 -1.06698645445 -0.158729247402 0.533857190482 92.0659981246 4.61077127941 -4.49385594318 1.23507578686 -0.910104457493 17.8438623765 -16.4624549093 -1.9363374988 -19.7092109445 -0.462042874001 0.0462047989973 0.000530889001377 0.662642008108 -2.8458789993 6.67527493011 -1.22859126929 3.88037134014 5.12885606899 -2.11727027713 -0.93060046781 23.8941412735 -0.694652490066 -32.2187775414 -3.95449383367 13.8149386908 -74.9663941413 -42.4663084287 -37.2396461852 -173.597863794 63.4652708243 173.443460538 9.56110199831 8.86876243441 -8.25301917319 30.8482078769 -0.981969466784 -6.75202875402 50.0403222748 -15.9474688912 16.5024644499 6.3248405488 60.0677161651 9.52564050991 -1.8110466431 9.83679319265 1.23748022689 -1.24496173863 -18.1920141939 -5.91532887315 0.751591828473 35.6800886014 10.603508394 0.393752508245 -17.7806387304 0.129245495209 -1.33896501744e-009 8.75215286937e-006 -1.46631633522e-008 
